<svg xmlns="http://www.w3.org/2000/svg">
<defs>
<font
       horiz-adv-x="850"
       id="font1"
       inkscape:label="font 1"
       horiz-origin-x="0">
      <font-face
         units-per-em="1000"
         ascent="750"
         cap-height="600"
         x-height="400"
         descent="200"
         id="font-face1"
         font-family="SVGFont 1" />
      <missing-glyph
         d="M0,0h1000v1000h-1000z"
         id="missing-glyph1" />
      <glyph
         glyph-name=""
         unicode=" "
         id="glyph1" />
      <glyph
         glyph-name=""
         unicode="!"
         id="glyph2" />
      <glyph
         glyph-name=""
         unicode="&quot;"
         id="glyph3" />
      <glyph
         glyph-name=""
         unicode="#"
         id="glyph4" />
      <glyph
         glyph-name=""
         unicode="$"
         id="glyph5" />
      <glyph
         glyph-name=""
         unicode="%"
         id="glyph6" />
      <glyph
         glyph-name=""
         unicode="&amp;"
         id="glyph7" />
      <glyph
         glyph-name=""
         unicode="'"
         id="glyph8" />
      <glyph
         glyph-name=""
         unicode="("
         id="glyph9" />
      <glyph
         glyph-name=""
         unicode=")"
         id="glyph10" />
      <glyph
         glyph-name=""
         unicode="*"
         id="glyph11" />
      <glyph
         glyph-name=""
         unicode="+"
         id="glyph12" />
      <glyph
         glyph-name=","
         unicode=","
         id="glyph13"
         d="m 133.33957,306.63633 c 0,-132.85557 -26.16851,-159.02412 -130.84261,-159.02412 0,80.51853 78.50558,0 78.50558,106.68708 -28.18149,0 -52.33706,22.14259 -52.33706,52.33704 0,28.18147 24.15557,52.33704 52.33706,52.33704 30.19445,0 52.33703,-24.15557 52.33703,-52.33704 z" />
      <glyph
         glyph-name="-"
         unicode="-"
         id="glyph14"
         d="m 55.233827,467.85589 c -28.518118,0 -52.9622421,0 -52.9622421,26.48112 0,26.48112 24.4441241,26.48112 52.9622421,26.48112 H 324.11911 c 28.51812,0 52.96225,0 52.96225,-26.48112 0,-26.48112 -24.44413,-26.48112 -52.96225,-26.48112 z" />
      <glyph
         glyph-name="."
         unicode="."
         id="glyph15"
         d="m 54.40691,253.84213 c -28.10044,0 -52.18654,24.08607 -52.18654,52.18652 0,30.10761 24.0861,54.1937 52.18654,54.1937 30.10761,0 52.18652,-24.08609 52.18652,-54.1937 0,-28.10045 -22.07891,-52.18652 -52.18652,-52.18652 z" />
      <glyph
         glyph-name=""
         unicode="/"
         id="glyph16" />
      <glyph
         glyph-name="0"
         unicode="0"
         id="glyph17"
         d="M 324.02425,253.63741 H 216.22214 c -105.76813,0 -213.570241,52.88405 -213.570241,207.46822 v 219.67223 c 0,160.68619 107.802111,213.57024 213.570241,213.57024 h 107.80211 c 105.7681,0 213.57022,-52.88405 213.57022,-213.57024 V 467.20765 c 0,-160.68619 -107.80212,-213.57024 -213.57022,-213.57024 z M 65.705976,398.05158 456.23438,786.54599 c -26.44203,36.61205 -71.19007,54.91806 -132.21013,54.91806 H 216.22214 c -105.76813,0 -160.686192,-54.91806 -160.686192,-154.58417 V 467.20765 c 0,-26.44203 4.068006,-48.81607 10.170028,-69.15607 z M 84.011989,361.43952 C 110.45401,324.8275 155.20205,306.52146 216.22214,306.52146 h 107.80211 c 105.7681,0 160.68617,54.91806 160.68617,160.68619 v 213.57021 c 0,26.44205 -4.06801,48.81607 -10.17,69.1561 z"
         horiz-adv-x="0,00" />
      <glyph
         glyph-name="1"
         unicode="1"
         id="glyph18"
         d="M 1.651899,894.3481 H 162.33806 V 253.63741 H 109.45401 V 841.46405 H 1.651899 Z" />
      <glyph
         glyph-name="2"
         unicode="2"
         id="glyph19"
         d="M 2.1832727,842.1682 H 324.03081 c 105.92448,0 105.92448,-107.96152 105.92448,-146.6647 0,-40.74021 0,-93.70245 -105.92448,-93.70245 H 163.10703 c -52.96225,0 -160.9237573,-26.48112 -160.9237573,-134.44263 V 253.47239 H 376.99305 c 52.96224,0 71.29532,18.33308 107.96151,52.96225 H 57.18254 v 160.92378 c 0,52.96224 79.44336,79.44336 105.92449,79.44336 h 160.92378 c 105.92448,0 160.92375,28.51815 160.92375,134.44263 v 52.96227 c 0,107.96152 -107.96151,160.92376 -160.92375,160.92376 H 110.14478 c -52.96224,0 -71.295348,-18.33308 -107.9615073,-52.96224 z" />
      <glyph
         glyph-name="3"
         unicode="3"
         id="glyph20"
         d="M 431.88675,601.71779 H 2.0777172 V 546.71852 H 431.88675 V 414.31291 c 0,-26.48115 0,-107.96153 -107.96151,-107.96153 H 2.0777172 V 253.38913 H 323.92524 c 107.96151,0 160.92375,52.96225 160.92375,160.92378 v 266.84824 c 0,105.92452 -107.96151,213.88603 -213.88601,213.88603 H 2.0777172 V 842.08494 H 270.96298 c 105.9245,0 160.92377,-107.96152 160.92377,-160.92379 z" />
      <glyph
         glyph-name="4"
         unicode="4"
         id="glyph21"
         d="M 54.535948,575.00976 V 894.3481 H 1.651899 V 575.00976 c 0,-54.91806 52.884049,-107.80211 107.802111,-107.80211 H 430.82637 V 253.63741 h 52.88405 V 894.3481 H 430.82637 V 520.0917 H 109.45401 c -26.442021,0 -54.918062,26.44202 -54.918062,54.91806 z" />
      <glyph
         glyph-name="5"
         unicode="5"
         id="glyph22"
         d="M 56.638384,842.46971 H 484.41039 v 52.96224 H 1.6391169 V 628.58368 H 323.48664 c 52.96224,0 107.96151,-52.96224 107.96151,-107.96151 V 414.69768 c 0,-52.96227 -54.99927,-107.96153 -107.96151,-107.96153 H 1.6391169 C 38.305276,272.10698 56.638384,253.7739 109.60063,253.7739 h 213.88601 c 52.96224,0 160.92375,52.96225 160.92375,160.92378 v 105.92449 c 0,107.96151 -107.96151,160.92375 -160.92375,160.92375 H 56.638384 Z" />
      <glyph
         glyph-name="6"
         unicode="6"
         id="glyph23"
         d="m 162.30299,575.75139 c -52.96225,0 -107.961514,-54.99927 -107.961514,-107.96151 v -52.96225 c 0,-52.96227 54.999264,-107.96153 107.961514,-107.96153 h 160.92378 c 52.96224,0 107.96151,54.99926 107.96151,107.96153 v 52.96225 c 0,52.96224 -54.99927,107.96151 -107.96151,107.96151 z m 160.92378,52.96224 c 52.96224,0 160.92375,-52.96224 160.92375,-160.92375 v -52.96225 c 0,-107.96153 -107.96151,-160.92378 -160.92375,-160.92378 H 162.30299 c -52.96225,0 -160.9237577,52.96225 -160.9237577,160.92378 v 266.84824 c 0,160.92379 107.9615077,213.88603 213.8860277,213.88603 H 484.15052 V 842.59966 H 215.26526 c -105.92452,0 -160.923784,-54.99927 -160.923784,-160.92379 v -52.96224 z" />
      <glyph
         glyph-name="7"
         unicode="7"
         id="glyph24"
         d="m 376.9981,813.2064 v 28.51815 H 2.1883232 v 52.96224 H 429.96034 V 786.72528 C 321.99883,733.76303 216.07435,466.91477 216.07435,253.02874 h -52.96227 c 0,213.88603 105.92451,507.21542 213.88602,560.17766 z" />
      <glyph
         glyph-name="8"
         unicode="8"
         id="glyph25"
         d="m 163.10703,842.6169 c -52.96225,0 -107.961514,-54.99927 -107.961514,-107.96152 v -52.96227 c 0,-52.96224 54.999264,-79.44336 107.961514,-79.44336 h 160.92378 c 52.96224,0 107.96151,26.48112 107.96151,79.44336 v 52.96227 c 0,52.96225 -54.99927,107.96152 -107.96151,107.96152 z m 0,-295.36642 c -52.96225,0 -107.961514,-26.48112 -107.961514,-79.44336 v -52.96225 c 0,-52.96227 54.999264,-107.96153 107.961514,-107.96153 h 160.92378 c 52.96224,0 107.96151,54.99926 107.96151,107.96153 v 52.96225 c 0,52.96224 -54.99927,79.44336 -107.96151,79.44336 z m 160.92378,348.32866 c 52.96224,0 160.92375,-52.96224 160.92375,-160.92376 v -52.96227 c 0,-52.96224 -52.96224,-105.92448 -107.96151,-105.92448 54.99927,0 107.96151,-54.99927 107.96151,-107.96151 v -52.96225 c 0,-107.96153 -107.96151,-160.92378 -160.92375,-160.92378 H 163.10703 c -52.96225,0 -160.9237573,52.96225 -160.9237573,160.92378 v 52.96225 c 0,52.96224 52.9622433,107.96151 107.9615073,107.96151 -54.999264,0 -107.9615073,52.96224 -107.9615073,105.92448 v 52.96227 c 0,107.96152 107.9615073,160.92376 160.9237573,160.92376 z" />
      <glyph
         glyph-name="9"
         unicode="9"
         id="glyph26"
         d="m 323.22676,573.71436 c 52.96225,0 107.96152,54.99927 107.96152,107.96151 v 52.96225 c 0,52.96227 -54.99927,107.96153 -107.96152,107.96153 H 162.30298 c -52.96224,0 -107.961509,-54.99926 -107.961509,-107.96153 v -52.96225 c 0,-52.96224 54.999269,-107.96151 107.961509,-107.96151 z M 162.30298,520.75212 c -52.96224,0 -160.9237495,52.96224 -160.9237495,160.92375 v 52.96225 c 0,107.96153 107.9615095,160.92378 160.9237495,160.92378 h 160.92378 c 52.96225,0 160.92376,-52.96225 160.92376,-160.92378 V 467.78988 c 0,-160.92379 -107.96151,-213.88603 -213.88603,-213.88603 H 1.3792305 v 52.96224 H 270.26449 c 105.92452,0 160.92379,54.99927 160.92379,160.92379 v 52.96224 z" />
      <glyph
         glyph-name=":"
         unicode=":"
         id="glyph27"
         d="m 55.16143,253.60752 c -30.19712,0 -54.35482,24.15768 -54.35482,52.34167 0,30.19711 24.1577,54.35482 54.35482,54.35482 28.18396,0 52.34165,-24.15771 52.34165,-54.35482 0,-28.18399 -24.15769,-52.34167 -52.34165,-52.34167 z m 0,316.06316 c -30.19712,0 -54.35482,24.15767 -54.35482,52.34166 0,30.19711 24.1577,54.35482 54.35482,54.35482 28.18396,0 52.34165,-24.15771 52.34165,-54.35482 0,-28.18399 -24.15769,-52.34166 -52.34165,-52.34166 z" />
      <glyph
         glyph-name=";"
         unicode=";"
         id="glyph28"
         d="m 132.56992,306.31033 c 0,-132.58493 -26.11524,-158.70017 -130.57608,-158.70017 0,80.35451 78.34563,0 78.34563,106.46975 -30.13293,0 -52.23042,22.09749 -52.23042,52.23042 0,28.12407 22.09749,52.23042 52.23042,52.23042 28.1241,0 52.23045,-24.10635 52.23045,-52.23042 z M 80.33947,569.47135 c -30.13293,0 -52.23042,24.10633 -52.23042,52.23042 0,30.13294 22.09749,54.23929 52.23042,54.23929 28.1241,0 52.23045,-24.10635 52.23045,-54.23929 0,-28.12409 -24.10635,-52.23042 -52.23045,-52.23042 z" />
      <glyph
         glyph-name=""
         unicode="&lt;"
         id="glyph29" />
      <glyph
         glyph-name="="
         unicode="="
         id="glyph30"
         d="m 54.826756,414.53621 c -28.518117,0 -52.962242,0 -52.962242,26.48113 0,26.48112 24.444125,26.48112 52.962242,26.48112 H 323.71205 c 28.51811,0 52.96224,0 52.96224,-26.48112 0,-26.48113 -24.44413,-26.48113 -52.96224,-26.48113 z m 0,213.886 c -28.518117,0 -52.962242,0 -52.962242,26.48112 0,26.48112 24.444125,26.48112 52.962242,26.48112 H 323.71205 c 28.51811,0 52.96224,0 52.96224,-26.48112 0,-26.48112 -24.44413,-26.48112 -52.96224,-26.48112 z" />
      <glyph
         glyph-name=""
         unicode="&gt;"
         id="glyph31" />
      <glyph
         glyph-name=""
         unicode="?"
         id="glyph32" />
      <glyph
         glyph-name=""
         unicode="@"
         id="glyph33" />
      <glyph
         glyph-name="A"
         unicode="A"
         id="glyph42"
         d="M 120.12881,520.48004 54.944506,333.07517 v -79.4434 H 1.9822626 v 52.96225 L 203.64622,895.28982 h 79.44337 l 201.66396,-588.6958 v -52.96225 h -52.96224 v 79.4434 L 366.607,520.48004 Z m 18.33311,54.99927 h 209.81197 l -91.66542,266.84827 h -26.48112 z" />
      <glyph
         glyph-name="B"
         unicode="B"
         id="glyph43"
         d="m 270.96089,601.49239 c 105.92451,0 160.92377,26.48112 160.92377,105.92451 0,79.44337 -54.99926,134.44264 -160.92377,134.44264 H 55.037868 V 601.49239 Z M 55.037868,546.49312 V 306.12598 H 323.92315 c 107.96151,0 107.96151,81.48038 107.96151,134.44266 0,52.96224 -54.99926,105.92448 -107.96151,105.92448 z M 270.96089,894.82178 c 105.92451,0 213.88602,-52.96224 213.88602,-160.92376 0,-105.92451 -26.48112,-122.22059 -81.48039,-158.88675 54.99927,-38.70319 81.48039,-54.99927 81.48039,-160.92376 0,-107.96153 -52.96225,-160.92378 -213.88602,-160.92378 H 2.0756248 v 641.65805 z" />
      <glyph
         glyph-name="C"
         unicode="C"
         id="glyph44"
         d="m 1.6096797,467.65993 v 213.88599 c 0,105.92452 52.9622433,213.88603 213.8860203,213.88603 h 160.92377 c 52.96224,0 52.96224,0 107.96151,-52.96224 H 215.4957 c -105.92451,0 -160.923777,-54.99927 -160.923777,-160.92379 V 467.65993 c 0,-105.92452 54.999267,-160.92378 160.923777,-160.92378 H 484.38098 C 429.38171,253.7739 429.38171,253.7739 376.41947,253.7739 H 215.4957 C 54.571923,253.7739 1.6096797,361.73541 1.6096797,467.65993 Z" />
      <glyph
         glyph-name="D"
         unicode="D"
         id="glyph45"
         d="M 2.0116998,895.5497 V 253.89165 H 270.89696 c 160.92379,0 213.88604,52.96225 213.88604,213.88603 v 160.92375 c 0,158.88676 -160.92376,266.84827 -321.84755,266.84827 z M 215.89772,842.58746 c 107.96152,0 215.92303,-107.96152 215.92303,-213.88603 V 441.29656 c 0,-79.4434 -54.99926,-134.44266 -134.44263,-134.44266 H 54.973943 v 535.73356 z" />
      <glyph
         glyph-name="E"
         unicode="E"
         id="glyph46"
         d="M 1.4969812,253.96272 V 895.62077 H 484.26827 V 842.65853 H 54.459226 V 602.29138 H 484.26827 V 547.29211 H 54.459226 V 306.92497 H 484.26827 v -52.96225 z"
         horiz-adv-x="0,00" />
      <glyph
         glyph-name="F"
         unicode="F"
         id="glyph47"
         d="M 2.2198528,253.45305 V 895.1111 H 484.99114 V 842.14886 H 55.182096 V 601.78171 H 484.99114 V 546.78244 H 55.182096 V 253.45305 Z" />
      <glyph
         glyph-name="G"
         unicode="G"
         id="glyph48"
         d="m 2.2492901,467.57162 v 213.88599 c 0,105.92452 52.9622419,213.88603 213.8860199,213.88603 H 485.02059 V 842.3814 H 216.13531 C 110.2108,842.3814 55.211532,787.38213 55.211532,681.45761 V 467.57162 c 0,-105.92452 54.999268,-160.92378 160.923778,-160.92378 h 107.96152 c 52.96225,0 107.96151,54.99926 107.96151,107.96153 V 547.01498 H 271.13455 v 54.99927 H 485.02059 V 414.60937 c 0,-107.96153 -52.96225,-160.92378 -160.92376,-160.92378 H 216.13531 c -160.923778,0 -213.8860199,52.96225 -213.8860199,213.88603 z" />
      <glyph
         glyph-name="H"
         unicode="H"
         id="glyph49"
         d="M 1.893951,253.27643 V 894.93448 H 54.856193 V 628.08621 H 431.703 v 266.84827 h 52.96224 V 253.27643 H 431.703 V 575.12397 H 54.856193 V 253.27643 Z" />
      <glyph
         glyph-name="I"
         unicode="I"
         id="glyph50"
         d="M 55.221635,253.03379 H 2.2593916 V 894.69184 H 55.221635 Z" />
      <glyph
         glyph-name="J"
         unicode="J"
         id="glyph51"
         d="m 1.6075872,253.30587 v 52.96225 H 109.5691 c 105.92451,0 213.88601,107.96153 213.88601,213.88602 v 321.84754 h -107.9615 v 52.96224 H 376.41735 V 520.15414 c 0,-158.88676 -160.92374,-266.84827 -266.84825,-266.84827 z" />
      <glyph
         glyph-name="K"
         unicode="K"
         id="glyph52"
         d="M 1.7934459,253.53126 V 895.18931 H 54.755688 V 573.34177 L 376.60321,895.18931 V 840.19004 L 109.75496,573.34177 h 52.96224 c 105.92451,0 213.88601,-52.96224 213.88601,-158.88673 V 253.53126 h -52.96224 v 160.92378 c 0,52.96225 -54.99926,105.92449 -107.9615,105.92449 H 54.755688 V 253.53126 Z" />
      <glyph
         glyph-name="L"
         unicode="L"
         id="glyph53"
         d="M 1.4208629,253.80334 V 895.46139 H 54.383105 V 306.76559 H 376.23064 v -52.96225 z" />
      <glyph
         glyph-name="M"
         unicode="M"
         id="glyph54"
         d="M 54.767883,253.70283 H 1.8056393 V 895.36088 H 28.286762 L 242.17279,467.58886 458.09582,895.36088 h 26.48112 V 253.70283 H 431.61469 V 734.43712 L 244.20978,361.66434 54.767883,734.43712 Z" />
      <glyph
         glyph-name="N"
         unicode="N"
         id="glyph55"
         d="M 54.559731,842.32758 V 253.63177 H 1.5974863 V 895.28982 H 215.48351 c 160.92374,0 268.88525,-160.92376 268.88525,-266.84827 V 253.63177 h -52.96224 v 374.80978 c 0,105.92451 -107.96151,213.88603 -215.92301,213.88603 z" />
      <glyph
         glyph-name="O"
         unicode="O"
         id="glyph56"
         d="m 484.41039,681.53878 c 0,160.92379 -107.96151,213.88603 -213.88601,213.88603 H 215.52514 C 109.60063,895.42481 1.6391169,842.46257 1.6391169,681.53878 V 467.65279 c 0,-160.92378 107.9615131,-213.88603 213.8860231,-213.88603 h 54.99924 c 105.9245,0 213.88601,52.96225 213.88601,213.88603 z M 431.44815,467.65279 c 0,-105.92452 -54.99927,-160.92378 -160.92377,-160.92378 h -54.99924 c -105.92451,0 -160.923781,54.99926 -160.923781,160.92378 v 213.88599 c 0,105.92452 54.999271,160.92379 160.923781,160.92379 h 54.99924 c 105.9245,0 160.92377,-54.99927 160.92377,-160.92379 z" />
      <glyph
         glyph-name="P"
         unicode="P"
         id="glyph57"
         d="M 2.2787273,895.56695 V 253.9089 H 55.240971 V 520.75717 H 297.64513 c 105.92448,0 187.40487,54.99927 187.40487,134.44263 v 52.96227 c 0,107.96151 -52.96224,187.40488 -213.88601,187.40488 z M 297.64513,842.60471 c 79.44336,0 134.44263,-54.99927 134.44263,-107.96152 v -52.96227 c 0,-79.44336 -57.03629,-105.92448 -160.92377,-105.92448 H 55.240971 v 266.84827 z" />
      <glyph
         glyph-name="Q"
         unicode="Q"
         id="glyph58"
         d="M 347.57361,320.59768 229.4468,440.76118 c 52.95339,52.95339 79.43009,0 105.9068,-28.51339 l 59.06341,-59.06341 c 24.44005,26.47669 34.62338,63.13675 34.62338,114.0535 v 213.85025 c 0,105.90683 -52.95339,160.89689 -160.89687,160.89689 h -52.95339 c -105.90683,0 -160.896896,-54.99006 -160.896896,-160.89689 V 467.23788 c 0,-107.94348 54.990066,-160.8969 160.896896,-160.8969 h 52.95339 c 32.5867,0 59.06342,4.07334 79.43009,14.2567 z m 85.54012,-4.07334 89.61344,-91.65011 c -52.95338,-52.95342 -81.46676,0 -107.94346,28.51335 l -26.47671,26.4767 c -36.66006,-20.36667 -77.39342,-26.4767 -120.16348,-26.4767 h -52.95339 c -105.90683,0 -213.8503026,52.9534 -213.8503026,213.8503 v 213.85025 c 0,160.89689 107.9434726,213.8503 213.8503026,213.8503 h 52.95339 c 107.94348,0 213.85026,-52.95341 213.85026,-213.8503 V 467.23788 c 0,-69.24676 -18.33002,-118.12685 -48.88005,-150.71354 z" />
      <glyph
         glyph-name="R"
         unicode="R"
         id="glyph59"
         d="M 54.429786,628.47603 V 842.36206 H 270.35281 c 105.92451,0 160.92378,-54.99927 160.92378,-134.44264 0,-79.44339 -54.99927,-79.44339 -134.44264,-79.44339 z M 270.35281,575.51379 c 52.96227,0 160.92378,-81.48039 160.92378,-134.44263 V 253.66625 h 52.96224 v 213.88603 c 0,52.96224 -63.14731,71.29532 -81.48039,107.96151 28.51815,0 81.48039,52.96224 81.48039,105.92448 v 52.96227 c 0,52.96225 -52.96224,160.92376 -213.88602,160.92376 H 1.467544 V 253.66625 h 52.962242 v 321.84754 z" />
      <glyph
         glyph-name="S"
         unicode="S"
         id="glyph60"
         d="m 323.9669,253.38913 c 105.92448,0 160.92375,107.96151 160.92375,160.92378 v 52.96225 c 0,79.44336 -81.48039,134.44263 -160.92375,134.44263 H 189.52422 c -79.44336,0 -132.405605,26.48112 -132.405605,105.92451 0,79.44337 52.962245,134.44264 132.405605,134.44264 h 295.36643 c -36.66619,34.62916 -54.99927,52.96224 -107.96151,52.96224 H 163.0431 C 57.118615,895.04718 2.1193478,787.08567 2.1193478,734.12342 v -52.96227 c 0,-79.44336 79.4433642,-134.44263 160.9237522,-134.44263 h 134.44267 c 79.44337,0 132.40561,-26.48112 132.40561,-105.92448 0,-79.4434 -52.96224,-134.44266 -132.40561,-134.44266 H 2.1193478 C 38.785507,271.72221 57.118615,253.38913 110.08086,253.38913 Z" />
      <glyph
         glyph-name="T"
         unicode="T"
         id="glyph61"
         d="M 270.28174,253.39418 H 215.2825 V 842.08999 H 1.3964762 v 52.96224 H 484.16775 V 842.08999 H 270.28174 Z" />
      <glyph
         glyph-name="U"
         unicode="U"
         id="glyph62"
         d="M 55.057203,894.91009 H 2.094961 V 467.13807 c 0,-160.92378 107.961509,-213.88603 213.886019,-213.88603 h 54.99924 c 105.92452,0 213.88603,52.96225 213.88603,213.88603 V 894.91009 H 431.90401 V 467.13807 c 0,-105.92452 -54.99927,-160.92378 -160.92379,-160.92378 h -54.99924 c -105.92451,0 -160.923777,54.99926 -160.923777,160.92378 z" />
      <glyph
         glyph-name="V"
         unicode="V"
         id="glyph63"
         d="m 207.80853,253.28862 h 71.29532 L 484.84183,894.94667 H 429.84257 L 244.47469,306.25087 57.069819,894.94667 H 2.0705501 Z" />
      <glyph
         glyph-name="W"
         unicode="W"
         id="glyph64"
         d="M 537.77794,253.98001 H 484.81318 L 403.32891,484.17308 323.88176,253.98001 H 215.9151 L 2.0188913,865.11202 v 30.5566 H 54.983657 v -30.5566 L 250.54592,306.94478 h 38.70502 l 195.56224,558.16724 v 30.5566 h 52.96476 v -36.6679 L 419.62577,528.98942 503.14713,306.94478 698.70939,865.11202 v 30.5566 h 52.96476 v -30.5566 z" />
      <glyph
         glyph-name="X"
         unicode="X"
         id="glyph65"
         d="M 54.750639,361.80648 V 253.84497 H 1.7883954 V 361.80648 L 215.67442,602.17363 1.7883954,842.54078 v 52.96224 H 54.750639 v -52.96224 l 189.441901,-211.849 187.40489,211.849 v 52.96224 h 52.96225 V 842.54078 L 270.67366,602.17363 484.55968,361.80648 V 253.84497 H 431.59743 V 361.80648 L 244.19254,571.61849 Z" />
      <glyph
         glyph-name="Y"
         unicode="Y"
         id="glyph66"
         d="m 270.88686,253.448 h -54.99924 v 266.84827 c -105.92451,0 -213.8860211,54.99927 -213.8860211,213.88602 V 895.10605 H 54.963841 V 734.18229 c 0,-105.92451 54.999269,-158.88675 160.923779,-158.88675 h 54.99924 c 105.92453,0 160.92379,52.96224 160.92379,158.88675 V 895.10605 H 484.7729 V 734.18229 c 0,-134.44266 -83.51739,-213.88602 -213.88604,-213.88602 z" />
      <glyph
         glyph-name="Z"
         unicode="Z"
         id="glyph67"
         d="M 484.99114,306.0793 V 253.11705 H 2.2198528 V 361.07856 L 432.0289,786.81359 v 54.99927 H 2.2198528 V 894.7751 H 484.99114 V 786.81359 L 55.182096,361.07856 V 306.0793 Z" />
      <glyph
         glyph-name=""
         unicode="["
         id="glyph68" />
      <glyph
         glyph-name=""
         unicode="\"
         id="glyph69" />
      <glyph
         glyph-name=""
         unicode="]"
         id="glyph70" />
      <glyph
         glyph-name=""
         unicode="^"
         id="glyph71" />
      <glyph
         glyph-name=""
         unicode="_"
         id="glyph72" />
      <glyph
         glyph-name=""
         unicode="`"
         id="glyph73" />
      <glyph
         glyph-name="a"
         unicode="a"
         id="glyph74"
         d="m 116.68492,517.04684 44.15782,132.4735 44.15784,-132.4735 z M 223.06514,464.86032 267.22296,360.48729 V 254.10707 h 52.18655 v 78.27978 L 186.936,727.80012 H 134.74948 L 2.2760029,332.38685 V 254.10707 H 54.462518 v 106.38022 l 44.157844,104.37303 z" />
      <glyph
         glyph-name="b"
         unicode="b"
         id="glyph75"
         d="M 53.632844,675.79357 V 542.92626 H 160.32932 c 26.17083,0 106.69648,2.01312 106.69648,52.34166 0,52.34166 -54.35479,80.52565 -106.69648,80.52565 z m 0,-185.209 V 305.3756 H 160.32932 c 52.34169,0 106.69648,12.07885 106.69648,66.43364 0,54.35482 -80.52565,118.77533 -132.86732,118.77533 z M 1.2911834,253.03394 V 728.13523 H 107.98766 c 159.03814,0 211.37983,-78.5125 211.37983,-132.86731 0,-52.34166 -52.34169,-78.51252 -106.69648,-78.51252 78.51249,-38.24968 106.69648,-104.68332 106.69648,-130.85416 0,-26.17082 0,-132.8673 -159.03817,-132.8673 z" />
      <glyph
         glyph-name="c"
         unicode="c"
         id="glyph76"
         d="M 319.99996,676.52654 H 160.96179 c -76.499367,0 -106.696481,-30.19712 -106.696481,-106.69648 V 412.80505 c 0,-82.53881 28.183986,-106.69648 106.696481,-106.69648 H 319.99996 C 283.7634,271.88517 265.64514,253.76691 213.30348,253.76691 h -52.34169 c -106.696481,0 -159.0381427,52.34166 -159.0381427,159.03814 v 157.02501 c 0,106.69648 52.3416617,159.03814 159.0381427,159.03814 h 52.34169 c 52.34166,0 70.45992,-18.11827 106.69648,-52.34166 z" />
      <glyph
         glyph-name="d"
         unicode="d"
         id="glyph77"
         d="M 1.1633044,253.98932 V 727.68237 H 107.54352 c 158.56674,0 210.75328,-106.38022 210.75328,-210.75328 V 412.55606 c 0,-106.38022 -52.18654,-158.56674 -158.56676,-158.56674 z M 53.349821,675.49585 V 306.17584 H 159.73004 c 76.27261,0 106.38022,54.1937 106.38022,106.38022 v 156.55957 c 0,52.18652 -54.19368,106.38022 -106.38022,106.38022 z" />
      <glyph
         glyph-name="e"
         unicode="e"
         id="glyph78"
         d="M 53.261508,305.99207 H 318.2085 V 253.80555 H 1.0749927 V 727.4986 H 318.2085 V 675.31208 H 53.261508 V 542.83861 H 318.2085 V 490.65206 H 53.261508 Z" />
      <glyph
         glyph-name="f"
         unicode="f"
         id="glyph79"
         d="M 54.266558,490.98301 V 254.1365 H 2.0800432 V 727.82955 H 319.21354 V 675.64303 H 54.266558 V 543.16956 H 319.21354 v -52.18655 z" />
      <glyph
         glyph-name="g"
         unicode="g"
         id="glyph80"
         d="m 266.75372,412.11876 v 78.51249 H 160.05724 v 52.34169 H 319.0954 V 305.42228 c 0,-26.17083 -26.17083,-52.34166 -52.34168,-52.34166 H 160.05724 c -106.696478,0 -159.0381381,52.34166 -159.0381381,159.03814 v 157.02501 c 0,106.69648 52.3416601,159.03814 159.0381381,159.03814 H 319.0954 V 675.84025 H 160.05724 c -80.525648,0 -106.696478,-28.18399 -106.696478,-106.69648 V 412.11876 c 0,-78.51252 26.17083,-106.69648 106.696478,-106.69648 v 0 c 106.69648,0 106.69648,0 106.69648,106.69648 z" />
      <glyph
         glyph-name="h"
         unicode="h"
         id="glyph81"
         d="M 54.497007,491.0074 V 254.16089 H 2.3104906 V 727.85394 H 54.497007 V 543.19395 H 267.25745 v 184.65999 h 52.18652 V 254.16089 H 267.25745 V 491.0074 Z" />
      <glyph
         glyph-name="i"
         unicode="i"
         id="glyph82"
         d="M 2.3307179,729.05197 H 54.67238 V 253.95068 H 2.3307179 Z" />
      <glyph
         glyph-name="j"
         unicode="j"
         id="glyph83"
         d="m 268.10192,728.72607 h 52.34169 V 412.66292 c 0,-106.69648 -80.52565,-159.03814 -159.03817,-159.03814 -78.512493,0 -159.038142,52.34166 -159.038142,159.03814 v 52.34166 H 54.70896 v -52.34166 c 0,-80.52565 54.35482,-106.69648 106.69648,-106.69648 52.34169,0 106.69648,26.17083 106.69648,106.69648 z" />
      <glyph
         glyph-name="k"
         unicode="k"
         id="glyph84"
         d="M 54.407445,465.11727 V 253.73747 H 2.0657829 V 728.83876 H 54.407445 V 517.45893 L 265.78727,728.83876 h 54.35481 L 108.76226,517.45893 h 52.34166 c 104.68335,0 159.03816,-52.34166 159.03816,-157.02498 V 253.73747 h -54.35481 v 159.03814 c 0,26.17083 -26.17083,52.34166 -52.34166,52.34166 z" />
      <glyph
         glyph-name="l"
         unicode="l"
         id="glyph85"
         d="M 264.78727,306.07913 V 253.73747 H 1.0657829 V 728.83876 H 53.407445 V 306.07913 Z" />
      <glyph
         glyph-name="m"
         unicode="m"
         id="glyph86"
         d="M 53.692981,571.19901 V 254.06545 H 1.5064505 V 727.75863 L 212.25979,412.63223 423.01312,727.75863 V 254.06545 H 370.82659 V 571.19901 L 212.25979,334.3524 Z" />
      <glyph
         glyph-name="n"
         unicode="n"
         id="glyph87"
         d="M 53.59246,675.66742 V 254.16089 H 1.4059451 V 727.85394 H 107.78616 c 158.56674,0 210.75328,-106.38022 210.75328,-210.75328 V 254.16089 H 266.3529 V 569.2872 c 0,52.18652 -54.19368,106.38022 -106.38022,106.38022 z" />
      <glyph
         glyph-name="o"
         unicode="o"
         id="glyph88"
         d="M 1.8895073,569.80061 V 412.7756 c 0,-106.69646 52.3416627,-159.03813 159.0381327,-159.03813 h 52.34168 c 106.69648,0 159.03815,52.34167 159.03815,159.03813 v 157.02501 c 0,106.69648 -52.34167,159.03815 -159.03815,159.03815 H 160.92764 C 54.23117,728.83876 1.8895073,676.49709 1.8895073,569.80061 Z M 213.26932,306.07914 h -52.34168 c -78.512484,0 -106.69647,28.18396 -106.69647,106.69646 v 157.02501 c 0,78.5125 28.183986,106.69648 106.69647,106.69648 h 52.34168 c 76.49937,0 106.69648,-32.21027 106.69648,-106.69648 V 412.7756 c 0,-78.5125 -28.18398,-106.69646 -106.69648,-106.69646 z" />
      <glyph
         glyph-name="p"
         unicode="p"
         id="glyph89"
         d="M 54.520143,464.41879 V 253.03899 H 2.1784813 V 728.14028 H 108.87496 c 159.03814,0 211.37982,-78.51249 211.37982,-132.86731 v -26.17083 c 0,-52.34169 -52.34168,-104.68335 -159.03816,-104.68335 z m 0,211.37983 V 516.76045 H 161.21662 c 52.34169,0 106.69648,0 106.69648,66.43367 0,66.43367 -54.35479,92.6045 -106.69648,92.6045 z" />
      <glyph
         glyph-name="q"
         unicode="q"
         id="glyph90"
         d="m 53.629969,409.82577 c 0,-78.5621 28.201795,-104.74946 106.763891,-104.74946 h 52.37477 c 18.12971,0 32.2306,0 46.33148,4.02882 l -86.61976,82.59093 c 54.38916,52.37474 80.57652,0 106.7639,-26.18736 l 24.17296,-24.17298 c 10.07206,16.11532 14.10089,38.27386 14.10089,68.49005 v 159.13867 c 0,74.53326 -28.20177,106.7639 -104.74947,106.7639 h -52.37477 c -78.562096,0 -106.763891,-28.20181 -106.763891,-106.7639 z M 1.2552355,568.96444 c 0,106.7639 52.3747335,159.13862 159.1386245,159.13862 h 52.37477 c 104.74947,0 159.13863,-52.37472 159.13863,-159.13862 V 409.82577 c 0,-44.31707 -10.07206,-80.57652 -30.2162,-106.76389 l 82.59093,-78.5621 c -52.37473,-52.37475 -80.57653,0 -106.76389,28.20179 l -18.12971,16.11528 c -22.15854,-12.08648 -50.36035,-16.11528 -86.61976,-16.11528 h -52.37477 c -106.763891,0 -159.1386245,52.37474 -159.1386245,157.1242 z" />
      <glyph
         glyph-name="r"
         unicode="r"
         id="glyph91"
         d="M 54.260257,464.38935 V 253.00955 H 1.9185968 V 728.11084 H 108.61507 c 159.03814,0 211.37984,-106.69648 211.37984,-159.03814 0,-52.34169 -26.17083,-104.68335 -80.52566,-104.68335 28.18396,0 80.52566,-52.34166 80.52566,-104.68332 V 253.00955 h -52.3417 v 106.69648 c 0,52.34166 -80.52564,104.68332 -106.69648,104.68332 z m 106.696473,52.34166 c 52.34169,0 106.69648,0 106.69648,52.34169 0,52.34166 -54.35479,106.69648 -106.69648,106.69648 H 54.260257 V 516.73101 Z" />
      <glyph
         glyph-name="s"
         unicode="s"
         id="glyph92"
         d="M 2.0922366,306.07533 H 160.65897 c 52.18654,0 104.37306,30.10761 104.37306,106.38022 0,70.25107 -48.17217,78.27977 -104.37306,78.27977 -104.373029,0 -158.5667334,26.09326 -158.5667334,78.2798 v 52.18652 c 0,54.1937 54.1937044,106.38022 158.5667334,106.38022 h 52.18654 c 52.18652,0 70.25107,-18.06456 106.38022,-52.18652 H 160.65897 c -52.18651,0 -104.373029,-26.09326 -104.373029,-80.28696 0,-56.20086 66.236729,-52.18651 104.373029,-52.18651 104.37306,0 158.56676,-26.09329 158.56676,-104.37306 v -52.18652 c 0,-80.28696 -54.1937,-132.47348 -158.56676,-132.47348 h -52.18651 c -52.186519,0 -70.251105,18.06456 -106.3802234,52.18652 z" />
      <glyph
         glyph-name="t"
         unicode="t"
         id="glyph93"
         d="M 187.52959,253.08062 H 135.18793 V 675.84025 H 2.320617 v 52.34166 H 320.39693 V 675.84025 H 187.52959 Z" />
      <glyph
         glyph-name="u"
         unicode="u"
         id="glyph94"
         d="M 54.14756,728.73826 H 1.8058984 V 412.67511 c 0,-106.69648 52.3416616,-159.03814 159.0381416,-159.03814 h 52.34169 c 106.69647,0 159.03814,52.34166 159.03814,159.03814 V 728.73826 H 319.8822 V 412.67511 c 0,-78.51252 -28.18398,-106.69648 -106.69647,-106.69648 h -52.34169 c -78.512494,0 -106.69648,28.18396 -106.69648,106.69648 z" />
      <glyph
         glyph-name="v"
         unicode="v"
         id="glyph95"
         d="M 212.4313,254.23196 H 160.24476 L 1.6780231,675.73849 v 52.18652 H 53.864538 V 657.67393 L 186.33801,306.41848 318.81152,657.67393 v 70.25108 h 52.18652 v -52.18652 z" />
      <glyph
         glyph-name="w"
         unicode="w"
         id="glyph96"
         d="m 321.05837,507.34377 50.31876,114.72676 v 106.67575 h -52.3315 V 614.01952 L 186.20409,306.06877 53.362603,614.01952 V 728.74628 H 1.0310997 V 622.07053 L 160.03835,253.73727 h 52.33152 l 80.51001,185.173 78.49725,-185.173 h 52.33149 L 582.71589,622.07053 V 728.74628 H 530.38437 V 614.01952 L 397.54287,306.06877 Z" />
      <glyph
         glyph-name="x"
         unicode="x"
         id="glyph97"
         d="M 53.433082,332.14421 V 253.86443 H 1.2465656 v 78.27978 L 159.8133,490.71094 1.2465656,649.2777 v 78.27978 H 53.433082 V 649.2777 L 185.90656,516.8042 318.38006,649.2777 v 78.27978 h 52.18652 V 649.2777 L 211.99984,490.71094 370.56658,332.14421 v -78.27978 h -52.18652 v 78.27978 l -132.4735,132.47347 z" />
      <glyph
         glyph-name="y"
         unicode="y"
         id="glyph98"
         d="m 212.65881,253.02175 h -52.34168 v 211.3798 c -106.696482,0 -159.0381436,52.34166 -159.0381436,157.02501 V 728.12304 H 53.620648 V 621.42656 c 0,-74.48624 28.183986,-104.68335 106.696482,-104.68335 h 52.34168 c 80.52566,0 106.69649,28.18399 106.69649,104.68335 v 106.69648 h 52.34166 V 621.42656 c 0,-102.67019 -56.36795,-157.02501 -159.03815,-157.02501 z" />
      <glyph
         glyph-name="z"
         unicode="z"
         id="glyph34"
         d="M 320.49237,305.90756 V 253.5659 H 2.4160716 V 360.26238 L 268.15069,621.97071 v 54.35482 H 2.4160716 v 52.34166 H 320.49237 V 621.97071 L 54.757741,360.26238 v -54.35482 z" />
    </font>
</defs>
</svg>
