<svg xmlns="http://www.w3.org/2000/svg">
<defs>
<font
       horiz-adv-x="850"
       id="font1"
       inkscape:label="font 1"
       horiz-origin-x="0">
      <font-face
         units-per-em="1000"
         ascent="750"
         cap-height="600"
         x-height="400"
         descent="200"
         id="font-face1"
         font-family="SVGFont 1" />
      <missing-glyph
         d="M0,0h1000v1000h-1000z"
         id="missing-glyph1" />
      <glyph
         glyph-name=""
         unicode=" "
         id="glyph1" />
      <glyph
         glyph-name=""
         unicode="!"
         id="glyph2" />
      <glyph
         glyph-name=""
         unicode="&quot;"
         id="glyph3" />
      <glyph
         glyph-name=""
         unicode="#"
         id="glyph4" />
      <glyph
         glyph-name=""
         unicode="$"
         id="glyph5" />
      <glyph
         glyph-name=""
         unicode="%"
         id="glyph6" />
      <glyph
         glyph-name=""
         unicode="&amp;"
         id="glyph7" />
      <glyph
         glyph-name=""
         unicode="'"
         id="glyph8" />
      <glyph
         glyph-name=""
         unicode="("
         id="glyph9" />
      <glyph
         glyph-name=""
         unicode=")"
         id="glyph10" />
      <glyph
         glyph-name=""
         unicode="*"
         id="glyph11" />
      <glyph
         glyph-name=""
         unicode="+"
         id="glyph12" />
      <glyph
         glyph-name=","
         unicode=","
         id="glyph13"
         d="m 133.33957,306.63633 c 0,-132.85557 -26.16851,-159.02412 -130.84261,-159.02412 0,80.51853 78.50558,0 78.50558,106.68708 -28.18149,0 -52.33706,22.14259 -52.33706,52.33704 0,28.18147 24.15557,52.33704 52.33706,52.33704 30.19445,0 52.33703,-24.15557 52.33703,-52.33704 z" />
      <glyph
         glyph-name="-"
         unicode="-"
         id="glyph14"
         d="m 55.11207,412.47994 c -30.107611,0 -54.193708,22.07891 -54.193708,52.18651 0,28.10045 24.086097,52.18652 54.193708,52.18652 h 262.93978 c 28.10045,0 52.18652,-24.08607 52.18652,-52.18652 0,-30.1076 -24.08607,-52.18651 -52.18652,-52.18651 z" />
      <glyph
         glyph-name="."
         unicode="."
         id="glyph15"
         d="m 54.40691,253.84213 c -28.10044,0 -52.18654,24.08607 -52.18654,52.18652 0,30.10761 24.0861,54.1937 52.18654,54.1937 30.10761,0 52.18652,-24.08609 52.18652,-54.1937 0,-28.10045 -22.07891,-52.18652 -52.18652,-52.18652 z" />
      <glyph
         glyph-name=""
         unicode="/"
         id="glyph16" />
      <glyph
         glyph-name="0"
         unicode="0"
         id="glyph17"
         d="M 419.98751,763.80687 110.81914,452.60454 v 280.6923 c 0,26.44202 26.44203,52.88405 52.88405,52.88405 h 212.69896 c 17.1433,0 33.41533,-8.13602 43.58536,-22.37402 z M 216.58724,893.983 C 110.81914,893.983 3.016999,841.09895 3.016999,680.41279 V 460.74053 c 0,-154.58417 107.802141,-207.46822 213.570241,-207.46822 h 107.80214 c 105.76813,0 213.57024,52.88405 213.57024,213.57024 v 213.57024 c 0,160.68616 -107.80211,213.57021 -213.57024,213.57021 z M 120.98914,383.44844 430.15751,694.6508 V 413.9585 c 0,-26.44205 -26.44203,-52.88408 -52.88405,-52.88408 H 163.70319 c -18.30601,0 -32.54405,8.13602 -42.71405,22.37402 z"
         horiz-adv-x="0,00" />
      <glyph
         glyph-name="1"
         unicode="1"
         id="glyph18"
         d="M 0.40120814,895.59882 H 214.36294 V 253.71363 H 107.38206 V 788.61794 H 0.40120814 Z" />
      <glyph
         glyph-name="2"
         unicode="2"
         id="glyph19"
         d="M 2.9685085,787.61794 H 377.40155 c 53.49042,0 53.49042,-53.49042 53.49042,-80.23564 0,-26.74521 0,-80.23564 -53.49042,-80.23564 H 163.43981 c -53.49042,0 -160.4713015,-53.49045 -160.4713015,-160.47205 V 252.71363 H 377.40155 c 106.98085,0 124.81064,71.32058 160.47127,106.98013 H 109.94939 v 106.98085 c 0,26.74301 26.74521,53.49045 53.49042,53.49045 h 213.96174 c 106.98085,0 160.47127,53.49115 160.47127,160.47203 v 53.49043 c 0,106.98088 -106.98085,160.4713 -160.47127,160.4713 H 163.43981 c -106.980848,0 -124.811751,-71.32097 -160.4713015,-106.98088 z" />
      <glyph
         glyph-name="3"
         unicode="3"
         id="glyph20"
         d="M 428.32463,627.14666 H 0.40119814 V 520.16506 H 428.32463 V 413.18493 c 0,-26.74521 -26.74521,-53.49117 -53.49042,-53.49117 H 0.40119814 V 252.71363 H 374.83421 c 106.98088,0 160.4713,53.49154 160.4713,160.4713 v 267.45216 c 0,106.98085 -106.98088,213.96173 -213.96173,213.96173 H 0.40119814 V 787.61794 H 321.34378 c 53.49043,0 106.98085,-53.49042 106.98085,-106.98085 z" />
      <glyph
         glyph-name="4"
         unicode="4"
         id="glyph21"
         d="M 107.38204,573.65621 V 894.59882 H 0.40118814 V 573.65621 c 0,-106.9816 106.98085186,-160.47128 160.47130186,-160.47128 H 428.32465 V 252.71363 H 535.3055 V 894.59882 H 428.32465 V 520.16506 H 160.87249 c -26.74596,0 -53.49045,26.74594 -53.49045,53.49115 z" />
      <glyph
         glyph-name="5"
         unicode="5"
         id="glyph22"
         d="M 108.94947,788.61794 H 536.87293 V 895.59882 H 1.9685867 V 574.65621 H 376.40162 c 26.74522,0 53.49043,-26.74521 53.49043,-53.49115 V 414.18493 c 0,-26.74521 -26.74521,-53.49117 -53.49043,-53.49117 H 1.9685867 C 37.629251,325.03421 55.45904,253.71363 162.43989,253.71363 h 213.96173 c 53.49043,0 160.47131,53.49154 160.47131,160.4713 v 106.98013 c 0,106.9816 -106.98088,160.47203 -160.47131,160.47203 H 108.94947 Z" />
      <glyph
         glyph-name="6"
         unicode="6"
         id="glyph23"
         d="m 164.2063,520.55887 c -26.5243,0 -53.04858,-26.52431 -53.04858,-53.04861 v -53.04861 c 0,-26.5243 26.52428,-53.04863 53.04858,-53.04863 h 214.2348 c 26.5243,0 53.0486,26.52433 53.0486,53.04863 v 53.04861 c 0,26.5243 -8.1613,57.12927 -53.0486,53.04861 z m 214.2348,108.13755 c 53.0486,0 161.18619,-53.0486 161.18619,-161.18616 V 414.46165 C 539.62729,306.3241 431.4897,253.27546 378.4411,253.27546 H 164.2063 c -53.04858,0 -161.1861365,53.04864 -161.1861365,161.18619 v 267.28341 c 0,161.18616 108.1375565,214.23477 214.2347665,214.23477 H 539.62729 V 787.84227 H 217.25493 c -53.04863,0 -106.09721,-53.04861 -106.09721,-106.09721 v -53.04864 z" />
      <glyph
         glyph-name="7"
         unicode="7"
         id="glyph24"
         d="M 322.34382,787.61794 H 1.4012081 V 894.59882 H 482.8151 V 787.61794 C 375.83424,734.12752 268.85337,466.67461 268.85337,252.71363 H 161.87251 c 0,213.96098 106.98086,481.41389 160.47131,534.90431 z" />
      <glyph
         glyph-name="8"
         unicode="8"
         id="glyph25"
         d="m 377.27337,253.2723 c 52.88405,0 160.6862,52.88408 160.6862,160.68619 v 52.88405 c 0,52.88405 -52.88408,107.80211 -107.80215,107.80211 54.91807,0 107.80215,52.88405 107.80215,105.76813 v 52.88405 c 0,107.80211 -107.80215,160.68616 -160.6862,160.68616 H 163.70319 c -52.88408,0 -160.686191,-52.88405 -160.686191,-160.68616 v -52.88405 c 0,-52.88408 52.884077,-105.76813 107.802111,-105.76813 -54.918034,0 -107.802111,-54.91806 -107.802111,-107.80211 V 413.95849 C 3.016999,306.15638 110.81911,253.2723 163.70319,253.2723 Z M 163.70319,361.07441 c -26.44205,0 -52.88408,26.44203 -52.88408,52.88408 v 52.88405 c 0,26.44202 26.44203,52.88405 52.88408,52.88405 h 213.57018 c 26.44203,0 52.88405,-26.44203 52.88405,-52.88405 v -52.88405 c 0,-26.44205 -26.44202,-52.88408 -52.88405,-52.88408 z m 213.57018,425.10647 c 26.44203,0 52.88405,-26.44203 52.88405,-52.88405 v -52.88405 c 0,-26.44205 -26.44202,-52.88408 -52.88405,-52.88408 H 163.70319 c -26.44205,0 -52.88408,26.44203 -52.88408,52.88408 v 52.88405 c 0,26.44202 26.44203,52.88405 52.88408,52.88405 z" />
      <glyph
         glyph-name="9"
         unicode="9"
         id="glyph26"
         d="m 378.44115,628.69642 c 26.5243,0 53.04858,26.52431 53.04858,53.04861 v 53.04861 c 0,26.5243 -26.52428,53.04863 -53.04858,53.04863 h -214.2348 c -26.5243,0 -53.0486,-26.52433 -53.0486,-53.04863 v -53.04861 c 0,-26.5243 8.1613,-57.12927 53.0486,-53.04861 z M 164.20635,520.55887 c -53.0486,0 -161.186189,53.0486 -161.186189,161.18616 v 53.04861 c 0,108.13755 108.137589,161.18619 161.186189,161.18619 h 214.2348 c 53.04858,0 161.18614,-53.04864 161.18614,-161.18619 V 467.51023 c 0,-161.18616 -108.13756,-214.23477 -214.23477,-214.23477 H 3.020161 V 361.41302 H 325.39252 c 53.04863,0 106.09721,53.04861 106.09721,106.09721 v 53.04864 z" />
      <glyph
         glyph-name=":"
         unicode=":"
         id="glyph27"
         d="m 55.16143,253.60752 c -30.19712,0 -54.35482,24.15768 -54.35482,52.34167 0,30.19711 24.1577,54.35482 54.35482,54.35482 28.18396,0 52.34165,-24.15771 52.34165,-54.35482 0,-28.18399 -24.15769,-52.34167 -52.34165,-52.34167 z m 0,316.06316 c -30.19712,0 -54.35482,24.15767 -54.35482,52.34166 0,30.19711 24.1577,54.35482 54.35482,54.35482 28.18396,0 52.34165,-24.15771 52.34165,-54.35482 0,-28.18399 -24.15769,-52.34166 -52.34165,-52.34166 z" />
      <glyph
         glyph-name=";"
         unicode=";"
         id="glyph28"
         d="m 132.56992,306.31033 c 0,-132.58493 -26.11524,-158.70017 -130.57608,-158.70017 0,80.35451 78.34563,0 78.34563,106.46975 -30.13293,0 -52.23042,22.09749 -52.23042,52.23042 0,28.12407 22.09749,52.23042 52.23042,52.23042 28.1241,0 52.23045,-24.10635 52.23045,-52.23042 z M 80.33947,569.47135 c -30.13293,0 -52.23042,24.10633 -52.23042,52.23042 0,30.13294 22.09749,54.23929 52.23042,54.23929 28.1241,0 52.23045,-24.10635 52.23045,-54.23929 0,-28.12409 -24.10635,-52.23042 -52.23045,-52.23042 z" />
      <glyph
         glyph-name=""
         unicode="&lt;"
         id="glyph29" />
      <glyph
         glyph-name="="
         unicode="="
         id="glyph30"
         d="m 56.44855,359.78929 c -30.197112,0 -54.354814,22.14454 -54.354814,52.34166 0,28.18396 24.157702,52.34166 54.354814,52.34166 h 263.7215 c 28.18399,0 52.34166,-24.1577 52.34166,-52.34166 0,-30.19712 -24.15767,-52.34166 -52.34166,-52.34166 z m 0,209.36667 c -30.197112,0 -54.354814,24.15767 -54.354814,52.34166 0,30.19711 24.157702,54.35482 54.354814,54.35482 h 263.7215 c 28.18399,0 52.34166,-24.15771 52.34166,-54.35482 0,-28.18399 -24.15767,-52.34166 -52.34166,-52.34166 z" />
      <glyph
         glyph-name=""
         unicode="&gt;"
         id="glyph31" />
      <glyph
         glyph-name=""
         unicode="?"
         id="glyph32" />
      <glyph
         glyph-name=""
         unicode="@"
         id="glyph33" />
      <glyph
         glyph-name="A"
         unicode="A"
         id="glyph42"
         d="M 155.20205,467.20765 110.45401,332.96351 v -79.3261 H 2.651899 v 52.88405 L 204.01812,894.3481 H 336.22824 L 537.59447,306.52146 V 253.63741 H 429.79235 v 79.3261 l -44.74804,134.24414 z m 34.57804,107.80211 h 160.68619 l -52.88405,158.65218 h -56.95208 z" />
      <glyph
         glyph-name="B"
         unicode="B"
         id="glyph43"
         d="M 3.0170013,893.983 V 253.27314 H 324.39207 c 160.68654,0 213.56631,52.88239 213.56631,160.68475 0,105.76837 -26.43883,122.03873 -81.35702,160.68486 54.91819,36.61214 81.35702,52.88716 81.35702,158.6555 0,107.80236 -107.79796,160.68475 -213.56631,160.68475 z M 110.82026,786.1798 h 213.57181 c 52.88418,0 105.76846,-26.44356 105.76846,-79.32773 0,-52.8842 -52.88428,-79.32239 -105.76846,-79.32239 H 110.82026 Z m 0,-266.45332 h 213.57181 c 52.88418,0 105.76846,-26.44356 105.76846,-79.32776 0,-52.88417 -52.88428,-79.32773 -105.76846,-79.32773 H 110.82026 Z" />
      <glyph
         glyph-name="C"
         unicode="C"
         id="glyph44"
         d="m 0.40117815,466.67423 v 213.96285 c 0,106.98089 53.49042685,213.96174 213.96174185,213.96174 H 374.8342 c 106.98088,0 106.98088,-53.49043 160.47131,-106.98085 H 214.36292 c -53.49043,0 -106.98089,-53.49043 -106.98089,-106.98089 V 466.67423 c 0,-53.49154 53.49046,-106.98085 106.98089,-106.98085 H 535.30551 C 481.81508,306.20407 481.81508,252.71364 374.8342,252.71364 H 214.36292 c -160.471315,0 -213.96174185,106.97974 -213.96174185,213.96059 z" />
      <glyph
         glyph-name="D"
         unicode="D"
         id="glyph45"
         d="M 110.81911,786.18088 V 361.07441 h 240.01224 c 52.88405,0 79.32607,26.44203 79.32607,79.3261 V 627.5287 c 0,105.76813 -52.88405,158.65218 -158.65214,158.65218 z m 105.76813,107.80211 c 160.68613,0 321.37233,-107.80211 321.37233,-266.45429 V 466.84254 c 0,-160.68616 -52.88408,-213.57024 -213.57024,-213.57024 H 3.016999 v 640.71069 z" />
      <glyph
         glyph-name="E"
         unicode="E"
         id="glyph46"
         d="M 0.40120815,252.71364 V 894.59882 H 535.30554 V 787.61797 H 107.38206 V 627.14666 H 535.30554 V 520.16469 H 107.38206 V 359.69338 H 535.30554 V 252.71364 Z"
         horiz-adv-x="0,00" />
      <glyph
         glyph-name="F"
         unicode="F"
         id="glyph47"
         d="M 2.4011682,252.71364 V 894.59882 H 537.3055 V 787.61797 H 109.38202 V 627.14666 H 537.3055 V 520.16469 H 109.38202 V 252.71364 Z" />
      <glyph
         glyph-name="G"
         unicode="G"
         id="glyph48"
         d="m 0.40119815,466.67423 v 213.96285 c 0,106.98089 53.49042685,213.96174 213.96174185,213.96174 H 535.30553 V 787.61797 H 187.61772 c -53.49045,0 -80.23567,-26.74522 -80.23567,-80.23567 V 439.92902 c 0,-53.49154 26.74522,-80.23564 80.23567,-80.23564 h 160.47056 c 53.49043,0 80.23639,26.7441 80.23639,80.23564 v 80.23567 H 267.85336 V 627.14666 H 535.30553 V 413.18492 c 0,-106.98085 -53.49043,-160.47128 -160.47131,-160.47128 H 214.36294 c -160.471315,0 -213.96174185,53.49043 -213.96174185,213.96059 z" />
      <glyph
         glyph-name="H"
         unicode="H"
         id="glyph49"
         d="M 0.40117815,252.71364 V 894.59882 H 107.38206 V 680.63708 H 428.32465 V 894.59882 H 535.30551 V 252.71364 H 428.32465 V 573.65623 H 107.38206 V 252.71364 Z" />
      <glyph
         glyph-name="I"
         unicode="I"
         id="glyph50"
         d="M 109.38203,253.71364 H 2.4011482 V 895.59882 H 109.38203 Z" />
      <glyph
         glyph-name="J"
         unicode="J"
         id="glyph51"
         d="M 0.40121815,253.71364 V 360.69338 H 214.36296 c 53.49042,0 106.98088,53.49154 106.98088,106.98085 V 788.61797 H 267.85338 V 895.59882 H 428.32469 V 521.16469 c 0,-160.47131 -160.47131,-267.45105 -267.45216,-267.45105 z" />
      <glyph
         glyph-name="K"
         unicode="K"
         id="glyph52"
         d="M 0.40120815,253.71364 V 895.59882 H 107.38206 V 628.14666 L 374.83423,895.59882 H 481.81511 L 214.36295,628.14666 h 53.49042 c 106.98086,0 213.96174,-106.98197 213.96174,-213.96174 V 253.71364 H 374.83423 v 160.47128 c 0,53.48931 -53.49043,106.97977 -106.98086,106.97977 H 107.38206 V 253.71364 Z" />
      <glyph
         glyph-name="L"
         unicode="L"
         id="glyph53"
         d="M 0.40118815,253.71364 V 895.59882 H 107.38204 V 360.69338 H 428.32466 V 253.71364 Z" />
      <glyph
         glyph-name="M"
         unicode="M"
         id="glyph54"
         d="M 109.38199,252.71364 H 2.4011382 V 894.59882 H 109.38199 L 296.59776,466.67423 483.81504,894.59882 H 590.79589 V 252.71364 H 483.81504 V 680.63708 L 296.59852,306.20407 109.38199,680.63708 Z" />
      <glyph
         glyph-name="N"
         unicode="N"
         id="glyph55"
         d="M 107.4985,788.19847 V 252.71407 H 0.4016332 V 895.29533 H 268.14383 c 160.6453,0 267.7422,-160.6453 267.7422,-267.74219 V 252.71407 h -107.0969 v 401.61328 c 2.42159,53.54844 -53.54843,133.87112 -133.87108,133.87112 z" />
      <glyph
         glyph-name="O"
         unicode="O"
         id="glyph56"
         d="m 2.0170009,466.84252 c 0,-160.68616 107.8020991,-213.57023 213.5702191,-213.57023 h 54.91807 c 105.76809,0 213.5702,52.88407 213.5702,213.57023 v 213.57023 c 0,160.68618 -107.80211,213.57025 -213.5702,213.57025 H 215.58722 C 109.8191,893.983 2.0170009,841.09893 2.0170009,680.41275 Z M 109.8191,680.41275 c 0,52.88404 52.88408,105.76809 105.76812,105.76809 h 54.91807 c 52.88404,0 105.76809,-52.88405 105.76809,-105.76809 V 466.84252 c 0,-52.88405 -52.88405,-105.76812 -105.76809,-105.76812 h -54.91807 c -52.88404,0 -105.76812,52.88407 -105.76812,105.76812 z" />
      <glyph
         glyph-name="P"
         unicode="P"
         id="glyph57"
         d="m 349.74596,785.51949 c 52.71949,0 79.07921,-26.35974 79.07921,-79.07923 v -52.71952 c 0,-52.7195 -26.35972,-79.07924 -79.07921,-79.07924 H 110.48051 V 785.51949 Z M 3.0138344,892.98617 V 254.26914 H 110.48051 v 212.90569 h 265.62517 c 107.46667,0 160.18622,52.71949 160.18622,160.18616 v 52.71952 c 0,105.43898 -52.71955,212.90566 -212.90571,212.90566 z" />
      <glyph
         glyph-name="Q"
         unicode="Q"
         id="glyph58"
         d="M 2.6540527,680.32367 V 466.30143 c 0,-158.98797 108.0302773,-214.02227 214.0222673,-214.02227 h 52.99598 c 38.72784,0 71.34074,10.19156 103.95367,32.61293 l 57.0726,-59.11092 c 26.49799,-26.49798 52.99598,-52.99597 108.03029,0 L 430.69857,333.81145 c 34.65122,38.72784 52.99598,85.60892 52.99598,132.48998 v 214.02224 c 0,161.0263 -105.99196,214.02228 -214.02225,214.02228 H 216.67632 C 110.68433,894.34595 2.6540527,841.34997 2.6540527,680.32367 Z M 357.3195,407.19051 324.7066,439.80344 c -26.49798,26.49799 -55.0343,52.99598 -108.03028,0 l 77.45567,-77.45567 c -8.15323,-2.03833 -14.26816,-2.03833 -24.45969,-2.03833 h -52.99598 c -52.996,0 -105.99199,52.99601 -105.99199,105.99199 v 214.02224 c 0,52.99601 52.99599,105.992 105.99199,105.992 h 52.99598 c 55.0343,0 108.03029,-52.99599 108.03029,-105.992 V 466.30143 c 0,-22.42138 -6.11491,-40.76615 -20.38309,-59.11092 z" />
      <glyph
         glyph-name="R"
         unicode="R"
         id="glyph59"
         d="M 2.651899,894.3481 V 253.63741 H 110.45401 V 520.0917 h 240.01227 c 52.88405,0 79.32607,-26.44203 79.32607,-79.32608 V 253.63741 h 107.80212 v 213.57024 c 0,52.88405 -63.05405,71.19006 -81.36009,107.80211 28.47604,0 81.36009,26.44203 81.36009,79.32608 v 79.3261 c 0,52.88405 -52.88405,160.68616 -213.57022,160.68616 z M 350.46628,786.54599 c 52.88405,0 77.29208,-24.40804 77.29208,-77.29209 0,-54.91806 -24.40803,-81.36009 -77.29208,-81.36009 H 110.45401 v 158.65218 z" />
      <glyph
         glyph-name="S"
         unicode="S"
         id="glyph60"
         d="m 376.40156,253.71364 c 106.98088,0 160.47131,106.97974 160.47131,160.47128 v 53.48931 c 0,106.982 -53.49043,160.47243 -160.47131,160.47243 H 189.18504 c -53.49043,0 -80.23564,26.74521 -80.23564,80.23564 0,53.49045 26.74521,80.23567 80.23564,80.23567 H 536.87287 C 501.21221,824.27752 483.38244,895.59882 376.40156,895.59882 H 162.43982 C 55.45897,895.59882 1.9685426,788.61797 1.9685426,735.12754 v -53.49046 c 0,-106.98085 53.4904274,-160.47239 160.4712774,-160.47239 h 187.21653 c 53.49043,0 79.98418,-26.87153 79.98418,-80.36084 0,-53.49155 -26.49375,-80.11047 -79.98418,-80.11047 H 1.9685426 C 37.628066,325.03383 55.45897,253.71364 162.43982,253.71364 Z" />
      <glyph
         glyph-name="T"
         unicode="T"
         id="glyph61"
         d="M 322.34372,253.71364 H 215.36287 V 788.61797 H 1.4011282 V 895.59882 H 536.30546 V 788.61797 H 322.34372 Z" />
      <glyph
         glyph-name="U"
         unicode="U"
         id="glyph62"
         d="M 108.38203,894.59882 H 1.4011637 V 466.67423 c 0,-160.47016 106.9808663,-213.96059 213.9617363,-213.96059 h 53.49043 c 106.98087,0 213.96172,53.49043 213.96172,213.96059 V 894.59882 H 375.8342 V 466.67423 c 0,-53.48931 -53.49043,-106.98085 -106.98087,-106.98085 H 215.3629 c -53.49044,0 -106.98087,53.49154 -106.98087,106.98085 z" />
      <glyph
         glyph-name="V"
         unicode="V"
         id="glyph63"
         d="M 2.4011682,842.10839 189.61769,253.71364 h 106.98086 l 187.21652,588.39475 v 53.49043 H 376.83422 V 842.10839 L 243.10517,360.69338 109.38205,842.10839 v 53.49043 H 2.4011682 Z" />
      <glyph
         glyph-name="W"
         unicode="W"
         id="glyph64"
         d="M 536.67564,254.55415 H 483.79158 L 402.4315,468.12439 323.10543,254.55415 H 215.3033 L 1.7330677,864.75481 v 30.51003 H 109.53518 V 787.46273 L 241.74533,415.24034 H 296.6634 L 428.87353,787.46273 V 895.26484 H 536.67564 V 858.65282 L 428.87353,575.92651 483.79158,415.24034 h 26.44203 l 132.21015,372.22239 v 107.80211 h 107.80212 v -30.51003 z" />
      <glyph
         glyph-name="X"
         unicode="X"
         id="glyph65"
         d="M 107.38204,360.69338 V 253.71364 H 0.40118815 V 360.69338 L 214.36293,601.40144 0.40118815,842.10839 v 53.49043 H 107.38204 v -53.49043 l 133.7261,-160.47131 133.72607,160.47131 v 53.49043 H 481.81509 V 842.10839 L 267.85335,601.40144 481.81509,360.69338 V 253.71364 H 374.83421 V 360.69338 L 241.10814,521.16469 Z" />
      <glyph
         glyph-name="Y"
         unicode="Y"
         id="glyph66"
         d="M 321.34378,252.71364 H 214.3629 v 267.45105 c -106.98086,0 -213.96171185,53.49154 -213.96171185,213.96282 V 894.59882 H 107.38204 V 734.12751 c 0,-53.49043 53.49043,-106.98085 106.98086,-106.98085 h 106.98088 c 53.49043,0 106.98085,53.49042 106.98085,106.98085 V 894.59882 H 535.30552 V 734.12751 c 0,-160.47128 -106.98089,-213.96282 -213.96174,-213.96282 z" />
      <glyph
         glyph-name="Z"
         unicode="Z"
         id="glyph67"
         d="M 537.3055,359.69338 V 252.71364 H 2.4011382 V 386.43859 L 403.5794,787.61797 H 2.4011382 V 894.59882 H 537.3055 V 814.36318 L 82.636055,359.69338 Z" />
      <glyph
         glyph-name=""
         unicode="["
         id="glyph68" />
      <glyph
         glyph-name=""
         unicode="\"
         id="glyph69" />
      <glyph
         glyph-name=""
         unicode="]"
         id="glyph70" />
      <glyph
         glyph-name=""
         unicode="^"
         id="glyph71" />
      <glyph
         glyph-name=""
         unicode="_"
         id="glyph72" />
      <glyph
         glyph-name=""
         unicode="`"
         id="glyph73" />
      <glyph
         glyph-name="a"
         unicode="a"
         id="glyph74"
         d="m 133.4896,517.02959 34.12195,104.37306 h 36.12915 l 34.12195,-104.37306 z m 114.40891,-104.37303 16.0574,-52.18652 V 254.08982 H 370.33612 V 332.3696 L 237.86265,727.78287 H 133.4896 L 1.0161185,332.3696 V 254.08982 H 107.39634 v 106.38022 l 16.0574,52.18652 z" />
      <glyph
         glyph-name="b"
         unicode="b"
         id="glyph75"
         d="M 109.23897,361.18042 H 213.4712 c 26.05806,0 52.11612,26.05809 52.11612,52.11615 0,26.05805 -26.05806,52.11611 -52.11612,52.11611 H 109.23897 Z M 3.002231,727.99777 H 161.35509 c 158.35285,0 210.46897,-78.17417 210.46897,-132.29477 0,-52.11612 -52.11612,-78.1742 -106.23674,-78.1742 78.1742,-38.08486 106.23674,-104.23223 106.23674,-130.29029 0,-26.05809 0,-132.2948 -158.35286,-132.2948 H 3.002231 Z M 109.23897,621.76106 V 569.64494 H 213.4712 c 26.05806,0 52.11612,8.01787 52.11612,26.05806 0,20.04467 -26.05806,26.05806 -52.11612,26.05806 z" />
      <glyph
         glyph-name="c"
         unicode="c"
         id="glyph76"
         d="M 370.29269,623.20547 H 159.49415 c -26.34981,0 -52.69962,-26.34981 -52.69962,-52.69962 V 412.40622 c 0,-26.34981 26.34981,-52.69962 52.69962,-52.69962 H 370.29269 C 335.16033,324.57424 317.59303,254.30732 212.19378,254.30732 h -52.69963 c -105.399276,0 -158.0989028,52.70036 -158.0989028,158.0989 v 158.09963 c 0,105.39928 52.6996268,158.0989 158.0989028,158.0989 h 52.69963 c 105.39925,0 122.96655,-70.26656 158.09891,-105.39928 z" />
      <glyph
         glyph-name="d"
         unicode="d"
         id="glyph77"
         d="M 109.23894,361.18042 H 213.4712 c 26.05806,0 52.11612,26.05806 52.11612,52.11615 v 156.34834 c 0,26.05809 -26.05806,52.11615 -52.11612,52.11615 H 109.23894 Z M 3.002231,727.99777 H 161.35509 c 158.35282,0 210.46894,-106.23671 210.46894,-210.46897 V 413.29657 c 0,-106.23674 -52.11612,-158.35286 -158.35283,-158.35286 H 3.002231 Z" />
      <glyph
         glyph-name="e"
         unicode="e"
         id="glyph78"
         d="M 105.79453,358.7066 H 369.29269 V 253.30732 H 0.39527715 V 727.60475 H 369.29269 V 622.20547 H 105.79453 V 569.50585 H 369.29269 V 464.10659 H 105.79453 Z" />
      <glyph
         glyph-name="f"
         unicode="f"
         id="glyph79"
         d="M 108.23986,464.99567 V 253.30898 H 2.396901 V 729.60309 H 372.84728 V 623.7601 H 108.23986 V 570.83863 H 372.84728 V 464.99567 Z" />
      <glyph
         glyph-name="g"
         unicode="g"
         id="glyph80"
         d="m 264.89339,412.40622 v 52.70037 l -52.274,0.15591 -53.12526,-0.15591 V 570.50585 H 370.29267 V 307.00768 c 0,-26.34981 -26.34984,-52.70036 -52.69966,-52.70036 H 159.49413 c -105.399276,0 -158.0989028,52.70036 -158.0989028,158.0989 v 158.09963 c 0,105.39928 52.6996268,158.0989 158.0989028,158.0989 H 370.29267 V 623.20547 H 159.49413 c -26.34981,0 -52.69965,-26.34981 -52.69965,-52.69962 V 412.40622 c 0,-26.34981 26.3491,-52.69962 52.69965,-52.69962 h 52.69963 c 52.69963,0 52.69963,0 52.69963,52.69962 z" />
      <glyph
         glyph-name="h"
         unicode="h"
         id="glyph81"
         d="M 106.79449,465.10659 V 254.30732 H 1.3952072 V 728.60475 H 106.79449 v -158.0989 h 158.09889 v 158.0989 H 370.29265 V 254.30732 H 264.89338 v 210.79927 z" />
      <glyph
         glyph-name="i"
         unicode="i"
         id="glyph82"
         d="M 2.396881,729.60309 H 108.23987 V 253.30898 H 2.396881 Z" />
      <glyph
         glyph-name="j"
         unicode="j"
         id="glyph83"
         d="M 211.19382,728.60475 H 316.59309 V 412.40622 c 0,-105.39854 -79.04945,-158.0989 -158.0989,-158.0989 -79.050187,0 -158.09891285,52.70036 -158.09891285,158.0989 v 52.70037 H 105.79456 v -52.70037 c 0,-52.69962 26.34907,-52.69962 52.69963,-52.69962 26.34981,0 52.69963,0 52.69963,52.69962 z" />
      <glyph
         glyph-name="k"
         unicode="k"
         id="glyph84"
         d="M 106.79452,465.10659 V 254.30732 H 1.3952672 V 728.60475 H 106.79452 V 544.15603 l 184.44872,184.44872 h 79.04944 V 702.25494 L 185.84396,517.80622 h 26.34984 c 105.39925,0 158.09888,-52.69963 158.09888,-158.09962 V 254.30732 H 264.89343 v 158.0989 c 0,26.35056 -26.34982,52.70037 -52.69963,52.70037 z" />
      <glyph
         glyph-name="l"
         unicode="l"
         id="glyph85"
         d="M 317.59299,358.7066 V 253.30732 H 1.3952071 V 727.60475 H 106.79449 V 358.7066 Z" />
      <glyph
         glyph-name="m"
         unicode="m"
         id="glyph86"
         d="M 107.7945,544.15603 V 254.30732 H 2.3952452 V 728.60475 H 81.444691 L 265.89341,412.40622 450.34213,728.60475 h 79.04944 V 254.30732 H 423.99229 V 544.15603 L 265.89341,307.00768 Z" />
      <glyph
         glyph-name="n"
         unicode="n"
         id="glyph87"
         d="M 106.79448,623.20547 V 254.30732 H 1.3952272 V 728.60475 H 159.49411 c 158.0989,0 210.79853,-105.39928 210.79853,-210.79853 V 254.30732 H 264.89338 v 316.19853 c 0,26.34981 -26.34981,52.69962 -52.69963,52.69962 z" />
      <glyph
         glyph-name="o"
         unicode="o"
         id="glyph88"
         d="m 107.23895,569.64493 c 0,26.05805 26.05807,52.11611 52.11613,52.11611 h 52.11612 c 26.05806,0 52.11615,-26.05806 52.11615,-52.11611 V 413.29654 c 0,-26.05805 -26.05809,-52.11611 -52.11615,-52.11611 h -52.11612 c -26.05806,0 -52.11613,26.05806 -52.11613,52.11611 z M 1.0022361,413.29654 c 0,-106.23671 52.1161259,-158.35283 158.3528439,-158.35283 h 52.11612 c 106.23674,0 158.35286,52.11612 158.35286,158.35283 v 156.34839 c 0,106.23671 -52.11612,158.35283 -158.35286,158.35283 H 159.35508 C 53.118362,727.99776 1.0022361,675.88164 1.0022361,569.64493 Z" />
      <glyph
         glyph-name="p"
         unicode="p"
         id="glyph89"
         d="M 109.23897,621.76106 V 517.5288 H 213.4712 c 26.05806,0 52.11617,26.05806 52.11617,52.11611 0,26.05809 -26.05811,52.11615 -52.11617,52.11615 z m 52.11612,106.23671 c 158.35285,0 210.46899,-106.23671 210.46899,-158.35286 V 517.5288 c 0,-52.11612 -52.11614,-104.23226 -158.35288,-104.23226 H 109.23897 V 254.94371 H 3.002231 v 473.05406 z" />
      <glyph
         glyph-name="q"
         unicode="q"
         id="glyph90"
         d="m 264.7449,569.29861 c 0,26.01087 -26.01087,52.02174 -52.02173,52.02174 h -52.02178 c -26.01087,0 -52.02174,-26.01087 -52.02174,-52.02174 v -158.0661 c 0,-26.01087 26.01087,-52.02175 52.02174,-52.02175 h 26.01087 l -26.01087,26.01088 c 52.02178,52.02173 82.03432,22.00919 98.04098,4.00167 v 0 c 6.00253,8.00335 6.00253,12.00502 6.00253,22.0092 z m 106.04434,-158.0661 c 0,-46.01925 -10.00418,-82.03429 -30.01255,-108.04516 l 82.03429,-76.0318 c -52.02174,-52.02173 -80.03346,-26.01086 -106.04433,0 l -36.01504,36.01505 c -20.00838,-6.00249 -40.01676,-10.00417 -68.02844,-10.00417 h -52.02178 c -106.044332,0 -158.0660739,54.02259 -158.0660739,158.06608 v 158.0661 c 0,106.04434 52.0217419,158.06607 158.0660739,158.06607 h 52.02178 c 104.04348,0 158.06607,-52.02173 158.06607,-158.06607 z" />
      <glyph
         glyph-name="r"
         unicode="r"
         id="glyph91"
         d="M 109.23895,621.76104 V 517.52881 h 104.23226 c 26.05806,0 52.11612,28.06251 52.11612,52.11612 0,26.05805 -26.05806,52.11611 -52.11612,52.11611 z m 52.11614,106.23672 c 158.35284,0 210.46895,-106.23672 210.46895,-158.35283 0,-52.11612 -26.05803,-104.23227 -80.17865,-104.23227 28.06254,0 80.17865,-52.11612 80.17865,-104.23223 V 254.94371 H 265.58733 v 106.23672 c 0,26.05806 -26.05806,52.11611 -52.11612,52.11611 H 109.23895 V 254.94371 H 3.0022311 v 473.05405 z" />
      <glyph
         glyph-name="s"
         unicode="s"
         id="glyph92"
         d="M 2.9541843,359.7066 H 213.75272 c 26.34981,0 52.69962,26.34981 52.69962,52.69962 0,26.34982 -26.34981,52.70037 -52.69962,52.70037 h -52.69963 c -105.399279,0 -158.0989057,52.69963 -158.0989057,105.39926 v 52.69962 c 0,52.69963 52.6996267,105.39928 158.0989057,105.39928 h 52.69963 c 105.39925,0 122.96545,-70.26656 158.09888,-105.39928 H 161.05309 c -26.34984,0 -52.69965,-6.71076 -52.69965,-26.34981 0,-19.63867 26.34981,-26.34981 52.69965,-26.34981 h 52.69963 c 105.39925,0 158.09888,-52.69963 158.09888,-131.74907 v -52.70037 c 0,-79.04873 -52.69963,-131.74909 -158.09888,-131.74909 h -52.69963 c -105.399279,0 -122.966544,70.26692 -158.0989057,105.39928 z" />
      <glyph
         glyph-name="t"
         unicode="t"
         id="glyph93"
         d="M 212.19379,253.30732 H 106.79454 V 622.20547 H 1.3952571 V 727.60475 H 317.59304 V 622.20547 H 212.19379 Z" />
      <glyph
         glyph-name="u"
         unicode="u"
         id="glyph94"
         d="M 106.23992,729.60309 H 0.39696104 V 412.07344 C 0.39696104,306.2312 53.31844,253.30898 159.1614,253.30898 h 52.9215 c 105.84296,0 158.76444,52.92222 158.76444,158.76446 V 729.60309 H 265.00438 V 412.07344 c 0,-26.46073 -26.46074,-52.92147 -52.92148,-52.92147 h -52.9215 c -26.46146,0 -52.92148,26.46074 -52.92148,52.92147 z" />
      <glyph
         glyph-name="v"
         unicode="v"
         id="glyph95"
         d="M 238.16417,254.30882 H 133.93191 L 1.6371311,605.09042 V 727.36287 H 107.87385 V 569.01004 l 78.17417,-208.4645 78.17421,208.4645 V 727.36287 H 370.45894 V 605.09042 Z" />
      <glyph
         glyph-name="w"
         unicode="w"
         id="glyph96"
         d="m 318.59298,517.80622 52.69966,105.39925 V 728.60475 H 265.89336 V 570.50585 L 186.84318,359.7066 107.79448,570.50585 v 158.0989 H 2.3951972 V 623.20547 L 160.4941,254.30732 h 52.69963 l 79.04944,158.0989 79.04947,-158.0989 h 52.69963 l 158.0989,368.89815 V 728.60475 H 476.69189 V 570.50585 L 397.64245,359.7066 Z" />
      <glyph
         glyph-name="x"
         unicode="x"
         id="glyph97"
         d="M 106.79446,333.3575 V 254.30732 H 1.3952072 V 333.3575 L 159.49411,491.45641 1.3952072,649.55529 v 79.04946 H 106.79446 v -79.04946 l 79.04947,-79.04944 79.04944,79.04944 v 79.04946 H 370.29262 V 649.55529 L 212.19374,491.45641 370.29262,333.3575 V 254.30732 H 264.89337 v 79.05018 l -79.04944,79.04872 z" />
      <glyph
         glyph-name="y"
         unicode="y"
         id="glyph98"
         d="M 264.49816,252.70257 H 159.09888 V 463.50184 C 53.69962,463.50184 1,516.20147 1,621.60072 V 727 H 106.39925 V 621.60072 c 0,-26.34981 26.34981,-52.69962 52.69963,-52.69962 h 105.39928 c 26.34981,0 52.69962,26.34981 52.69962,52.69962 V 727 H 422.59704 V 621.60072 c 0,-105.39925 -52.69963,-158.09888 -158.09888,-158.09888 z" />
      <glyph
         glyph-name="z"
         unicode="z"
         id="glyph34"
         d="M 368.8974,358.10185 V 252.70257 H 0 V 384.45166 L 237.1483,621.60072 H 0 V 727 H 368.8974 V 647.95054 L 79.0487,358.10185 Z" />
    </font>
</defs>
</svg>
